<svg width="59" height="82" viewBox="0 0 59 82" fill="none" xmlns="http://www.w3.org/2000/svg">
<g filter="url(#filter0_i_255_14)">
<path d="M37.3431 0H12C5.37258 0 0 5.37258 0 12V70C0 76.6274 5.37258 82 12 82H47C53.6274 82 59 76.6274 59 70V21.6569C59 20.596 58.5786 19.5786 57.8284 18.8284L48.5 9.5L40.1716 1.17157C39.4214 0.421427 38.404 0 37.3431 0Z" fill="#E7EBFD"/>
</g>
<mask id="mask0_255_14" style="mask-type:alpha" maskUnits="userSpaceOnUse" x="0" y="0" width="59" height="82">
<path d="M37.3431 0H12C5.37258 0 0 5.37258 0 12V70C0 76.6274 5.37258 82 12 82H47C53.6274 82 59 76.6274 59 70V21.6569C59 20.596 58.5786 19.5786 57.8284 18.8284L48.5 9.5L40.1716 1.17157C39.4214 0.421427 38.404 0 37.3431 0Z" fill="#E7EBFD"/>
</mask>
<g mask="url(#mask0_255_14)">
<g filter="url(#filter1_di_255_14)">
<path d="M39 -0.5H36V17C36 20.3137 38.6863 23 42 23H59V20L39 -0.5Z" fill="#E7EBFD"/>
</g>
</g>
<defs>
<filter id="filter0_i_255_14" x="0" y="0" width="59" height="82" filterUnits="userSpaceOnUse" color-interpolation-filters="sRGB">
<feFlood flood-opacity="0" result="BackgroundImageFix"/>
<feBlend mode="normal" in="SourceGraphic" in2="BackgroundImageFix" result="shape"/>
<feColorMatrix in="SourceAlpha" type="matrix" values="0 0 0 0 0 0 0 0 0 0 0 0 0 0 0 0 0 0 127 0" result="hardAlpha"/>
<feOffset/>
<feGaussianBlur stdDeviation="2"/>
<feComposite in2="hardAlpha" operator="arithmetic" k2="-1" k3="1"/>
<feColorMatrix type="matrix" values="0 0 0 0 0.656263 0 0 0 0 0.713253 0 0 0 0 0.760918 0 0 0 1 0"/>
<feBlend mode="normal" in2="shape" result="effect1_innerShadow_255_14"/>
</filter>
<filter id="filter1_di_255_14" x="29.5" y="-7" width="36" height="36.5" filterUnits="userSpaceOnUse" color-interpolation-filters="sRGB">
<feFlood flood-opacity="0" result="BackgroundImageFix"/>
<feColorMatrix in="SourceAlpha" type="matrix" values="0 0 0 0 0 0 0 0 0 0 0 0 0 0 0 0 0 0 127 0" result="hardAlpha"/>
<feOffset/>
<feGaussianBlur stdDeviation="3.25"/>
<feComposite in2="hardAlpha" operator="out"/>
<feColorMatrix type="matrix" values="0 0 0 0 0.474745 0 0 0 0 0.541915 0 0 0 0 0.59565 0 0 0 1 0"/>
<feBlend mode="normal" in2="BackgroundImageFix" result="effect1_dropShadow_255_14"/>
<feBlend mode="normal" in="SourceGraphic" in2="effect1_dropShadow_255_14" result="shape"/>
<feColorMatrix in="SourceAlpha" type="matrix" values="0 0 0 0 0 0 0 0 0 0 0 0 0 0 0 0 0 0 127 0" result="hardAlpha"/>
<feOffset/>
<feGaussianBlur stdDeviation="1"/>
<feComposite in2="hardAlpha" operator="arithmetic" k2="-1" k3="1"/>
<feColorMatrix type="matrix" values="0 0 0 0 0.656263 0 0 0 0 0.713253 0 0 0 0 0.760918 0 0 0 1 0"/>
<feBlend mode="normal" in2="shape" result="effect2_innerShadow_255_14"/>
</filter>
</defs>
</svg>
