<svg width="18" height="18" viewBox="0 0 18 18" fill="none" xmlns="http://www.w3.org/2000/svg">
<path d="M16.5 4.875H12M4.5 4.875H1.5M16.5 13.125H13.5M6 13.125H1.5M7.5 7.5C7.84472 7.5 8.18606 7.4321 8.50454 7.30018C8.82302 7.16827 9.1124 6.97491 9.35616 6.73116C9.59991 6.4874 9.79327 6.19802 9.92518 5.87954C10.0571 5.56106 10.125 5.21972 10.125 4.875C10.125 4.53028 10.0571 4.18894 9.92518 3.87046C9.79327 3.55198 9.59991 3.2626 9.35616 3.01884C9.1124 2.77509 8.82302 2.58173 8.50454 2.44982C8.18606 2.3179 7.84472 2.25 7.5 2.25C6.80381 2.25 6.13613 2.52656 5.64385 3.01884C5.15156 3.51113 4.875 4.17881 4.875 4.875C4.875 5.57119 5.15156 6.23887 5.64385 6.73116C6.13613 7.22344 6.80381 7.5 7.5 7.5ZM10.5 15.75C11.1962 15.75 11.8639 15.4734 12.3562 14.9812C12.8484 14.4889 13.125 13.8212 13.125 13.125C13.125 12.4288 12.8484 11.7611 12.3562 11.2688C11.8639 10.7766 11.1962 10.5 10.5 10.5C9.80381 10.5 9.13613 10.7766 8.64385 11.2688C8.15156 11.7611 7.875 12.4288 7.875 13.125C7.875 13.8212 8.15156 14.4889 8.64385 14.9812C9.13613 15.4734 9.80381 15.75 10.5 15.75Z" stroke="#7C8994" stroke-width="1.5" stroke-miterlimit="10" stroke-linecap="round" stroke-linejoin="round"/>
</svg>
