<svg width="24" height="24" viewBox="0 0 24 24" fill="none" xmlns="http://www.w3.org/2000/svg">
<path d="M5.50716 4.048C5.78878 3.71932 6.1382 3.45548 6.53141 3.27458C6.92463 3.09368 7.35233 3.00001 7.78516 3H16.2152C16.648 3.00001 17.0757 3.09368 17.4689 3.27458C17.8621 3.45548 18.2115 3.71932 18.4932 4.048L20.2152 6.056C19.9787 6.01848 19.7396 5.99975 19.5002 6H4.50016C4.25716 6 4.01816 6.02 3.78516 6.056L5.50716 4.048Z" fill="#7A89AB"/>
<path d="M5.50716 4.048C5.78878 3.71932 6.1382 3.45548 6.53141 3.27458C6.92463 3.09368 7.35233 3.00001 7.78516 3H16.2152C16.648 3.00001 17.0757 3.09368 17.4689 3.27458C17.8621 3.45548 18.2115 3.71932 18.4932 4.048L20.2152 6.056C19.9787 6.01848 19.7396 5.99975 19.5002 6H4.50016C4.25716 6 4.01816 6.02 3.78516 6.056L5.50716 4.048Z" fill="url(#paint0_linear_66_251)" fill-opacity="0.2"/>
<path fill-rule="evenodd" clip-rule="evenodd" d="M1.5 10.5C1.5 9.70435 1.81607 8.94129 2.37868 8.37868C2.94129 7.81607 3.70435 7.5 4.5 7.5H19.5C20.2956 7.5 21.0587 7.81607 21.6213 8.37868C22.1839 8.94129 22.5 9.70435 22.5 10.5C22.5 11.2956 22.1839 12.0587 21.6213 12.6213C21.0587 13.1839 20.2956 13.5 19.5 13.5H4.5C3.70435 13.5 2.94129 13.1839 2.37868 12.6213C1.81607 12.0587 1.5 11.2956 1.5 10.5ZM16.5 10.5C16.5 10.6989 16.421 10.8897 16.2803 11.0303C16.1397 11.171 15.9489 11.25 15.75 11.25C15.5511 11.25 15.3603 11.171 15.2197 11.0303C15.079 10.8897 15 10.6989 15 10.5C15 10.3011 15.079 10.1103 15.2197 9.96967C15.3603 9.82902 15.5511 9.75 15.75 9.75C15.9489 9.75 16.1397 9.82902 16.2803 9.96967C16.421 10.1103 16.5 10.3011 16.5 10.5ZM18.75 11.25C18.9489 11.25 19.1397 11.171 19.2803 11.0303C19.421 10.8897 19.5 10.6989 19.5 10.5C19.5 10.3011 19.421 10.1103 19.2803 9.96967C19.1397 9.82902 18.9489 9.75 18.75 9.75C18.5511 9.75 18.3603 9.82902 18.2197 9.96967C18.079 10.1103 18 10.3011 18 10.5C18 10.6989 18.079 10.8897 18.2197 11.0303C18.3603 11.171 18.5511 11.25 18.75 11.25ZM4.5 15C3.70435 15 2.94129 15.3161 2.37868 15.8787C1.81607 16.4413 1.5 17.2044 1.5 18C1.5 18.7956 1.81607 19.5587 2.37868 20.1213C2.94129 20.6839 3.70435 21 4.5 21H19.5C20.2956 21 21.0587 20.6839 21.6213 20.1213C22.1839 19.5587 22.5 18.7956 22.5 18C22.5 17.2044 22.1839 16.4413 21.6213 15.8787C21.0587 15.3161 20.2956 15 19.5 15H4.5ZM15.75 18.75C15.9489 18.75 16.1397 18.671 16.2803 18.5303C16.421 18.3897 16.5 18.1989 16.5 18C16.5 17.8011 16.421 17.6103 16.2803 17.4697C16.1397 17.329 15.9489 17.25 15.75 17.25C15.5511 17.25 15.3603 17.329 15.2197 17.4697C15.079 17.6103 15 17.8011 15 18C15 18.1989 15.079 18.3897 15.2197 18.5303C15.3603 18.671 15.5511 18.75 15.75 18.75ZM19.5 18C19.5 18.1989 19.421 18.3897 19.2803 18.5303C19.1397 18.671 18.9489 18.75 18.75 18.75C18.5511 18.75 18.3603 18.671 18.2197 18.5303C18.079 18.3897 18 18.1989 18 18C18 17.8011 18.079 17.6103 18.2197 17.4697C18.3603 17.329 18.5511 17.25 18.75 17.25C18.9489 17.25 19.1397 17.329 19.2803 17.4697C19.421 17.6103 19.5 17.8011 19.5 18Z" fill="#7A89AB"/>
<path fill-rule="evenodd" clip-rule="evenodd" d="M1.5 10.5C1.5 9.70435 1.81607 8.94129 2.37868 8.37868C2.94129 7.81607 3.70435 7.5 4.5 7.5H19.5C20.2956 7.5 21.0587 7.81607 21.6213 8.37868C22.1839 8.94129 22.5 9.70435 22.5 10.5C22.5 11.2956 22.1839 12.0587 21.6213 12.6213C21.0587 13.1839 20.2956 13.5 19.5 13.5H4.5C3.70435 13.5 2.94129 13.1839 2.37868 12.6213C1.81607 12.0587 1.5 11.2956 1.5 10.5ZM16.5 10.5C16.5 10.6989 16.421 10.8897 16.2803 11.0303C16.1397 11.171 15.9489 11.25 15.75 11.25C15.5511 11.25 15.3603 11.171 15.2197 11.0303C15.079 10.8897 15 10.6989 15 10.5C15 10.3011 15.079 10.1103 15.2197 9.96967C15.3603 9.82902 15.5511 9.75 15.75 9.75C15.9489 9.75 16.1397 9.82902 16.2803 9.96967C16.421 10.1103 16.5 10.3011 16.5 10.5ZM18.75 11.25C18.9489 11.25 19.1397 11.171 19.2803 11.0303C19.421 10.8897 19.5 10.6989 19.5 10.5C19.5 10.3011 19.421 10.1103 19.2803 9.96967C19.1397 9.82902 18.9489 9.75 18.75 9.75C18.5511 9.75 18.3603 9.82902 18.2197 9.96967C18.079 10.1103 18 10.3011 18 10.5C18 10.6989 18.079 10.8897 18.2197 11.0303C18.3603 11.171 18.5511 11.25 18.75 11.25ZM4.5 15C3.70435 15 2.94129 15.3161 2.37868 15.8787C1.81607 16.4413 1.5 17.2044 1.5 18C1.5 18.7956 1.81607 19.5587 2.37868 20.1213C2.94129 20.6839 3.70435 21 4.5 21H19.5C20.2956 21 21.0587 20.6839 21.6213 20.1213C22.1839 19.5587 22.5 18.7956 22.5 18C22.5 17.2044 22.1839 16.4413 21.6213 15.8787C21.0587 15.3161 20.2956 15 19.5 15H4.5ZM15.75 18.75C15.9489 18.75 16.1397 18.671 16.2803 18.5303C16.421 18.3897 16.5 18.1989 16.5 18C16.5 17.8011 16.421 17.6103 16.2803 17.4697C16.1397 17.329 15.9489 17.25 15.75 17.25C15.5511 17.25 15.3603 17.329 15.2197 17.4697C15.079 17.6103 15 17.8011 15 18C15 18.1989 15.079 18.3897 15.2197 18.5303C15.3603 18.671 15.5511 18.75 15.75 18.75ZM19.5 18C19.5 18.1989 19.421 18.3897 19.2803 18.5303C19.1397 18.671 18.9489 18.75 18.75 18.75C18.5511 18.75 18.3603 18.671 18.2197 18.5303C18.079 18.3897 18 18.1989 18 18C18 17.8011 18.079 17.6103 18.2197 17.4697C18.3603 17.329 18.5511 17.25 18.75 17.25C18.9489 17.25 19.1397 17.329 19.2803 17.4697C19.421 17.6103 19.5 17.8011 19.5 18Z" fill="url(#paint1_linear_66_251)" fill-opacity="0.2"/>
<defs>
<linearGradient id="paint0_linear_66_251" x1="12.0002" y1="3" x2="12.0002" y2="6.056" gradientUnits="userSpaceOnUse">
<stop stop-color="white"/>
<stop offset="1" stop-color="white" stop-opacity="0"/>
</linearGradient>
<linearGradient id="paint1_linear_66_251" x1="12" y1="7.5" x2="12" y2="21" gradientUnits="userSpaceOnUse">
<stop stop-color="white"/>
<stop offset="1" stop-color="white" stop-opacity="0"/>
</linearGradient>
</defs>
</svg>
