<svg width="18" height="18" viewBox="0 0 18 18" fill="none" xmlns="http://www.w3.org/2000/svg">
<path d="M15.75 4.485C13.2525 4.2375 10.74 4.11 8.235 4.11C6.75 4.11 5.265 4.185 3.78 4.335L2.25 4.485M6.375 3.7275L6.54 2.745C6.66 2.0325 6.75 1.5 8.0175 1.5H9.9825C11.25 1.5 11.3475 2.0625 11.46 2.7525L11.625 3.7275M14.1375 6.855L13.65 14.4075C13.5675 15.585 13.5 16.5 11.4075 16.5H6.5925C4.5 16.5 4.4325 15.585 4.35 14.4075L3.8625 6.855M7.7475 12.375H10.245M7.125 9.375H10.875" stroke="#7C8994" stroke-width="1.5" stroke-linecap="round" stroke-linejoin="round"/>
</svg>
